<mxfile host="app.diagrams.net" modified="2022-11-18T10:28:21.854Z" agent="5.0 (Windows NT 10.0; Win64; x64) AppleWebKit/537.36 (KHTML, like Gecko) Chrome/107.0.0.0 Safari/537.36" etag="Fj13wz_lsKCmQNs2ZxZp" version="20.5.3" type="github">
  <diagram id="V54pJjerueftb4QwuEq5" name="Page-1">
    <mxGraphModel dx="1422" dy="794" grid="1" gridSize="10" guides="1" tooltips="1" connect="1" arrows="1" fold="1" page="1" pageScale="1" pageWidth="850" pageHeight="1100" math="0" shadow="0">
      <root>
        <mxCell id="0" />
        <mxCell id="1" parent="0" />
        <mxCell id="EEE9qusLIlH5cOqFs5pW-3" value="" style="edgeStyle=orthogonalEdgeStyle;rounded=0;orthogonalLoop=1;jettySize=auto;html=1;" edge="1" parent="1" source="EEE9qusLIlH5cOqFs5pW-1" target="EEE9qusLIlH5cOqFs5pW-2">
          <mxGeometry relative="1" as="geometry">
            <Array as="points">
              <mxPoint x="485" y="380" />
              <mxPoint x="330" y="380" />
            </Array>
          </mxGeometry>
        </mxCell>
        <UserObject label="&lt;b style=&quot;font-size: 15px;&quot;&gt;Application&lt;br&gt;User Interface&lt;/b&gt;" treeRoot="1" id="EEE9qusLIlH5cOqFs5pW-1">
          <mxCell style="whiteSpace=wrap;html=1;align=center;treeFolding=1;treeMoving=1;newEdgeStyle={&quot;edgeStyle&quot;:&quot;elbowEdgeStyle&quot;,&quot;startArrow&quot;:&quot;none&quot;,&quot;endArrow&quot;:&quot;none&quot;};fillColor=#76608a;strokeColor=#432D57;strokeWidth=3;fontColor=#ffffff;" vertex="1" parent="1">
            <mxGeometry x="425" y="260" width="120" height="80" as="geometry" />
          </mxCell>
        </UserObject>
        <mxCell id="EEE9qusLIlH5cOqFs5pW-8" value="" style="edgeStyle=orthogonalEdgeStyle;rounded=0;orthogonalLoop=1;jettySize=auto;html=1;" edge="1" parent="1" source="EEE9qusLIlH5cOqFs5pW-2" target="EEE9qusLIlH5cOqFs5pW-7">
          <mxGeometry relative="1" as="geometry">
            <Array as="points">
              <mxPoint x="330" y="500" />
              <mxPoint x="240" y="500" />
            </Array>
          </mxGeometry>
        </mxCell>
        <mxCell id="EEE9qusLIlH5cOqFs5pW-2" value="&lt;b&gt;&lt;font style=&quot;font-size: 13px;&quot;&gt;Admin View&lt;/font&gt;&lt;/b&gt;" style="whiteSpace=wrap;html=1;fillColor=#ffe6cc;strokeColor=#d79b00;strokeWidth=3;" vertex="1" parent="1">
          <mxGeometry x="270" y="410" width="120" height="60" as="geometry" />
        </mxCell>
        <mxCell id="EEE9qusLIlH5cOqFs5pW-4" value="&lt;b&gt;&lt;font style=&quot;font-size: 13px;&quot;&gt;Customer View&lt;/font&gt;&lt;/b&gt;" style="whiteSpace=wrap;html=1;fillColor=#ffe6cc;strokeColor=#d79b00;strokeWidth=3;" vertex="1" parent="1">
          <mxGeometry x="610" y="420" width="120" height="60" as="geometry" />
        </mxCell>
        <mxCell id="EEE9qusLIlH5cOqFs5pW-6" value="" style="edgeStyle=orthogonalEdgeStyle;rounded=0;orthogonalLoop=1;jettySize=auto;html=1;exitX=0.5;exitY=1;exitDx=0;exitDy=0;" edge="1" parent="1" source="EEE9qusLIlH5cOqFs5pW-1">
          <mxGeometry relative="1" as="geometry">
            <mxPoint x="460" y="380" as="sourcePoint" />
            <mxPoint x="670" y="420" as="targetPoint" />
          </mxGeometry>
        </mxCell>
        <mxCell id="EEE9qusLIlH5cOqFs5pW-7" value="&lt;font style=&quot;font-size: 13px;&quot;&gt;&lt;b&gt;Guarded&lt;/b&gt;&lt;/font&gt;" style="whiteSpace=wrap;html=1;fillColor=#60a917;fontColor=#ffffff;strokeColor=#2D7600;" vertex="1" parent="1">
          <mxGeometry x="180" y="520" width="120" height="60" as="geometry" />
        </mxCell>
        <mxCell id="EEE9qusLIlH5cOqFs5pW-9" value="&lt;font style=&quot;font-size: 13px;&quot;&gt;&lt;b&gt;InSecure&lt;/b&gt;&lt;/font&gt;" style="whiteSpace=wrap;html=1;fillColor=#FF8000;strokeColor=#d79b00;gradientColor=#ffa500;strokeWidth=3;" vertex="1" parent="1">
          <mxGeometry x="365" y="520" width="120" height="60" as="geometry" />
        </mxCell>
        <mxCell id="EEE9qusLIlH5cOqFs5pW-12" value="" style="edgeStyle=orthogonalEdgeStyle;rounded=0;orthogonalLoop=1;jettySize=auto;html=1;" edge="1" parent="1">
          <mxGeometry relative="1" as="geometry">
            <mxPoint x="330" y="490" as="sourcePoint" />
            <mxPoint x="410" y="520" as="targetPoint" />
            <Array as="points">
              <mxPoint x="330" y="500" />
              <mxPoint x="410" y="500" />
              <mxPoint x="410" y="520" />
            </Array>
          </mxGeometry>
        </mxCell>
        <mxCell id="EEE9qusLIlH5cOqFs5pW-13" value="&lt;ul style=&quot;font-size: 14px;&quot;&gt;&lt;li&gt;&lt;b&gt;&lt;font color=&quot;#ff3333&quot;&gt;Critical&lt;/font&gt;&lt;/b&gt;&lt;/li&gt;&lt;li&gt;&lt;b&gt;&lt;font color=&quot;#ff8000&quot;&gt;Severe&lt;/font&gt;&lt;/b&gt;&lt;/li&gt;&lt;li&gt;&lt;b&gt;&lt;font color=&quot;#ffff00&quot;&gt;Moderate&lt;/font&gt;&lt;/b&gt;&lt;/li&gt;&lt;li&gt;&lt;b&gt;&lt;font color=&quot;#0000cc&quot;&gt;Low&lt;/font&gt;&lt;/b&gt;&lt;/li&gt;&lt;/ul&gt;" style="whiteSpace=wrap;html=1;align=left;fillColor=#E6E6E6;strokeColor=#FFFFFF;strokeWidth=3;" vertex="1" parent="1">
          <mxGeometry x="365" y="640" width="120" height="70" as="geometry" />
        </mxCell>
        <mxCell id="EEE9qusLIlH5cOqFs5pW-19" value="" style="edgeStyle=orthogonalEdgeStyle;rounded=0;orthogonalLoop=1;jettySize=auto;html=1;exitX=0.5;exitY=1;exitDx=0;exitDy=0;entryX=0.5;entryY=0;entryDx=0;entryDy=0;" edge="1" parent="1" source="EEE9qusLIlH5cOqFs5pW-9" target="EEE9qusLIlH5cOqFs5pW-13">
          <mxGeometry relative="1" as="geometry">
            <mxPoint x="425" y="580" as="sourcePoint" />
            <mxPoint x="425" y="640" as="targetPoint" />
            <Array as="points">
              <mxPoint x="425" y="610" />
              <mxPoint x="425" y="610" />
            </Array>
          </mxGeometry>
        </mxCell>
        <mxCell id="EEE9qusLIlH5cOqFs5pW-23" value="" style="edgeStyle=orthogonalEdgeStyle;rounded=0;orthogonalLoop=1;jettySize=auto;html=1;fontSize=14;fontColor=#0000CC;" edge="1" parent="1" target="EEE9qusLIlH5cOqFs5pW-22">
          <mxGeometry relative="1" as="geometry">
            <mxPoint x="750" y="580" as="sourcePoint" />
            <Array as="points">
              <mxPoint x="800" y="580" />
            </Array>
          </mxGeometry>
        </mxCell>
        <mxCell id="EEE9qusLIlH5cOqFs5pW-22" value="&lt;b&gt;&lt;font color=&quot;#330000&quot;&gt;Recomanded Option For Print&lt;/font&gt;&lt;/b&gt;" style="whiteSpace=wrap;html=1;fillColor=#A9C4EB;strokeColor=#d79b00;strokeWidth=3;fontSize=14;fontColor=#0000CC;" vertex="1" parent="1">
          <mxGeometry x="740" y="650" width="120" height="60" as="geometry" />
        </mxCell>
        <mxCell id="EEE9qusLIlH5cOqFs5pW-24" value="&lt;font style=&quot;font-size: 13px;&quot;&gt;&lt;b&gt;Guarded&lt;/b&gt;&lt;/font&gt;" style="whiteSpace=wrap;html=1;fillColor=#60a917;fontColor=#ffffff;strokeColor=#2D7600;strokeWidth=3;" vertex="1" parent="1">
          <mxGeometry x="520" y="520" width="120" height="60" as="geometry" />
        </mxCell>
        <mxCell id="EEE9qusLIlH5cOqFs5pW-25" value="&lt;font style=&quot;font-size: 13px;&quot;&gt;&lt;b&gt;InSecure&lt;/b&gt;&lt;/font&gt;" style="whiteSpace=wrap;html=1;fillColor=#FF8000;strokeColor=#d79b00;gradientColor=#ffa500;strokeWidth=3;" vertex="1" parent="1">
          <mxGeometry x="740" y="520" width="120" height="60" as="geometry" />
        </mxCell>
        <mxCell id="EEE9qusLIlH5cOqFs5pW-26" value="" style="edgeStyle=orthogonalEdgeStyle;rounded=0;orthogonalLoop=1;jettySize=auto;html=1;" edge="1" parent="1">
          <mxGeometry relative="1" as="geometry">
            <mxPoint x="670" y="490" as="sourcePoint" />
            <mxPoint x="770" y="520" as="targetPoint" />
            <Array as="points">
              <mxPoint x="670" y="490" />
              <mxPoint x="670" y="510" />
              <mxPoint x="770" y="510" />
            </Array>
          </mxGeometry>
        </mxCell>
        <mxCell id="EEE9qusLIlH5cOqFs5pW-27" value="" style="edgeStyle=orthogonalEdgeStyle;rounded=0;orthogonalLoop=1;jettySize=auto;html=1;" edge="1" parent="1">
          <mxGeometry relative="1" as="geometry">
            <mxPoint x="670" y="480" as="sourcePoint" />
            <mxPoint x="580" y="530" as="targetPoint" />
            <Array as="points">
              <mxPoint x="670" y="510" />
              <mxPoint x="580" y="510" />
            </Array>
          </mxGeometry>
        </mxCell>
      </root>
    </mxGraphModel>
  </diagram>
</mxfile>
